<?xml version="1.0" encoding="UTF-8"?>
<svg width="274px" height="489px" viewBox="0 0 274 489" version="1.1" xmlns="http://www.w3.org/2000/svg" xmlns:xlink="http://www.w3.org/1999/xlink">
    <!-- Generator: Sketch 55.2 (78181) - https://sketchapp.com -->
    <title>tower-icon</title>
    <desc>Created with Sketch.</desc>
    <g id="Design" stroke="none" stroke-width="1" fill="#ff0000" fill-rule="evenodd">
        <g id="Ship---Desktop" transform="translate(-948.000000, -5027.000000)" fill="#FFFFFF">
            <g id="tower" transform="translate(948.000000, 5013.000000)">
                <path d="M155.481,416.634 L189.284,416.634 C193.833,425.888 198.945,436.113 204.016,446.17 C191.627,431.206 174.464,420.803 155.481,416.634 L155.481,416.634 Z M69.475,446.28 C74.617,436.186 79.796,425.921 84.396,416.634 L118.041,416.634 C98.995,420.808 81.869,431.242 69.475,446.28 L69.475,446.28 Z M39.855,499.313 L29.704,489.865 L49.433,480.896 C44.815,489.81 41.305,496.537 39.855,499.313 L39.855,499.313 Z M86.625,382.932 L83.034,391.838 L70.528,391.838 C72.082,388.849 73.608,385.875 75.085,382.932 L86.625,382.932 Z M68.736,380.932 L204.859,380.932 L204.859,367.935 L68.736,367.935 L68.736,380.932 Z M108.639,292.27 L115.83,292.27 L113.835,306.63 L105.58,306.63 C107.61,298.913 108.385,294.134 108.639,292.27 L108.639,292.27 Z M104.036,290.27 L169.558,290.27 L169.558,277.273 L104.036,277.273 L104.036,290.27 Z M117.585,243.639 L135.213,257.809 L113.631,275.273 L112.378,275.273 C113.59,268.635 115.492,257.688 117.585,243.639 L117.585,243.639 Z M135.421,101.197 L129.047,112.862 C129.115,108.982 129.153,105.092 129.158,101.197 L135.421,101.197 Z M123.122,72.601 L127.265,72.601 L146.329,72.601 L150.472,72.601 L150.472,99.197 L123.122,99.197 L123.122,72.601 Z M129.265,70.601 L144.328,70.601 L144.328,51.835 L129.265,51.835 L129.265,70.601 Z M144.541,112.544 L138.341,101.197 L144.436,101.197 C144.441,104.985 144.477,108.769 144.541,112.544 L144.541,112.544 Z M145.22,134.611 L138.192,126.325 L144.668,118.691 C144.8,124.031 144.988,129.342 145.22,134.611 L145.22,134.611 Z M138.156,147.8 L145.407,138.63 C145.733,145.334 146.132,151.958 146.588,158.465 L138.156,147.8 Z M148.743,184.367 L138.145,172.761 L146.941,163.302 C147.482,170.497 148.088,177.536 148.743,184.367 L148.743,184.367 Z M136.817,227.085 L154.265,242.393 L136.804,256.522 L119.229,242.394 L136.817,227.085 Z M135.299,225.754 L118.003,240.808 C119.195,232.679 120.435,223.595 121.639,213.769 L135.299,225.754 Z M135.427,197.809 L122.037,210.486 C122.91,203.181 123.758,195.496 124.546,187.507 L135.427,197.809 Z M136.881,196.432 L125.848,185.985 L136.779,174.231 L147.7,186.19 L136.881,196.432 Z M138.335,197.809 L149.062,187.654 C149.84,195.525 150.676,203.101 151.537,210.307 L138.335,197.809 Z M136.823,224.429 L123.014,212.314 L136.881,199.186 L150.745,212.311 L136.823,224.429 Z M151.971,213.895 C153.175,223.714 154.416,232.788 155.605,240.908 L138.339,225.76 L151.971,213.895 Z M135.425,172.749 L124.877,184.092 C125.526,177.301 126.128,170.305 126.665,163.155 L135.425,172.749 Z M136.881,149.412 L146.185,161.178 L136.792,171.28 L127.573,161.185 L136.881,149.412 Z M135.607,147.801 L126.989,158.699 C127.458,152.051 127.865,145.282 128.197,138.429 L135.607,147.801 Z M136.881,127.871 L144.377,136.709 L136.881,146.188 L129.385,136.708 L136.881,127.871 Z M129.543,116.128 L136.881,102.697 L144.219,116.128 L136.881,124.78 L129.543,116.128 Z M135.57,126.325 L128.365,134.821 C128.604,129.421 128.796,123.975 128.931,118.499 L135.57,126.325 Z M156.938,275.273 L116.81,275.273 L136.808,259.091 L156.938,275.273 Z M160.13,275.273 L138.399,257.804 L155.998,243.564 C158.096,257.649 160.001,268.622 161.215,275.273 L160.13,275.273 Z M168.014,306.63 L159.285,306.63 L157.291,292.27 L164.955,292.27 C165.21,294.134 165.984,298.913 168.014,306.63 L168.014,306.63 Z M176.011,357.964 L187.276,365.935 L170.25,365.935 L176.011,357.964 Z M113.017,347.012 C113.018,347.006 113.021,347.002 113.022,346.996 C120.274,323.432 122.579,311.731 123.124,308.63 L150.712,308.63 C151.369,312.481 154.665,329.51 166.794,365.935 L106.941,365.935 C109.277,358.923 111.288,352.629 113.017,347.012 L113.017,347.012 Z M97.629,357.946 L103.566,365.935 L86.025,365.935 L97.629,357.946 Z M109.409,316.379 L100.457,323.538 C102.209,318.354 103.598,313.801 104.698,309.874 L109.409,316.379 Z M119.099,308.63 L110.972,315.129 L106.266,308.63 L119.099,308.63 Z M117.504,324.152 L112.147,316.751 L120.879,309.769 C120.394,312.273 119.395,316.935 117.504,324.152 L117.504,324.152 Z M105.157,334.719 L99.763,326.654 L110.584,318.002 L116.543,326.234 L105.157,334.719 Z M111.697,344.5 L106.27,336.384 L116.21,328.977 C115.001,333.384 113.512,338.543 111.697,344.5 L111.697,344.5 Z M98.085,355.204 L92.002,347.017 L104.665,337.58 L110.66,346.547 L98.085,355.204 Z M110.223,349.277 C108.751,353.99 107.086,359.16 105.212,364.796 L99.279,356.811 L110.223,349.277 Z M135.797,306.63 L126.566,306.63 L127.563,292.27 L135.797,292.27 L135.797,306.63 Z M163.014,315.11 L155.132,308.63 L167.579,308.63 L163.014,315.11 Z M164.564,316.383 L168.967,310.132 C170.044,313.961 171.398,318.382 173.088,323.389 L164.564,316.383 Z M170.263,335.919 L174.943,328.726 C176.598,333.367 178.522,338.443 180.752,343.954 L170.263,335.919 Z M174.378,356.808 L168.549,364.873 C166.639,359.131 164.948,353.869 163.459,349.08 L174.378,356.808 Z M163.346,346.551 L169.169,337.601 L181.459,347.014 L175.55,355.187 L163.346,346.551 Z M167.577,336.381 L162.127,344.757 C160.235,338.535 158.704,333.186 157.469,328.639 L167.577,336.381 Z M163.409,318.022 L173.907,326.651 L168.67,334.699 L157.623,326.237 L163.409,318.022 Z M156.376,324.533 C154.334,316.696 153.323,311.793 152.874,309.362 L161.86,316.748 L156.376,324.533 Z M190.102,365.484 L177.183,356.342 L182.706,348.702 C184.894,353.934 187.353,359.531 190.102,365.484 L190.102,365.484 Z M155.272,292.27 L157.266,306.63 L148.56,306.63 L147.563,292.27 L155.272,292.27 Z M145.557,292.27 L146.554,306.63 L137.797,306.63 L137.797,292.27 L145.557,292.27 Z M125.557,292.27 L124.56,306.63 L115.854,306.63 L117.848,292.27 L125.557,292.27 Z M98.683,328.637 L103.551,335.916 L92.876,343.871 C95.106,338.357 97.029,333.279 98.683,328.637 L98.683,328.637 Z M90.843,348.812 L96.436,356.339 L83.651,365.142 C86.316,359.359 88.709,353.911 90.843,348.812 L90.843,348.812 Z M203.067,391.838 L190.446,391.838 L186.855,382.932 L198.509,382.932 C199.985,385.875 201.512,388.849 203.067,391.838 L203.067,391.838 Z M219.023,448.11 L211.559,456.652 C208.824,451.259 206.006,445.684 203.208,440.115 L219.023,448.11 Z M207.717,426.825 L201.107,435.931 C198.049,429.831 195.045,423.801 192.232,418.094 L207.717,426.825 Z M72.487,435.931 L65.877,426.825 L81.469,418.034 C78.625,423.759 75.585,429.81 72.487,435.931 L72.487,435.931 Z M54.572,448.109 L70.359,440.129 C67.548,445.666 64.717,451.211 61.968,456.575 L54.572,448.109 Z M18.748,479.669 L40.675,469.52 L49.495,478.67 L28.118,488.389 L18.748,479.669 Z M52.729,449.04 L60.628,458.081 L41.127,467.108 L33.218,458.902 L52.729,449.04 Z M64.123,427.815 L71.147,437.49 L53.213,446.555 L45.844,438.12 L64.123,427.815 Z M56.588,417.438 L62.939,426.186 L45.814,435.841 C49.543,429.632 53.145,423.491 56.588,417.438 L56.588,417.438 Z M91.981,393.838 L76.638,402.741 L70.95,393.838 L91.981,393.838 Z M77.716,404.429 L92.147,396.055 C89.788,401.088 86.872,407.104 83.627,413.678 L77.716,404.429 Z M60.131,414.634 L75.985,405.434 L81.864,414.634 L60.131,414.634 Z M79.879,416.634 L64.694,425.197 L58.477,416.634 L79.879,416.634 Z M113.261,391.838 L100.22,391.838 L102.56,382.932 L114.404,382.932 L113.261,391.838 Z M128.357,391.838 L115.278,391.838 L116.42,382.932 L128.357,382.932 L128.357,391.838 Z M170.92,382.932 L173.259,391.838 L160.219,391.838 L159.077,382.932 L170.92,382.932 Z M196.956,402.742 L181.613,393.838 L202.645,393.838 L196.956,402.742 Z M215.117,416.634 L208.901,425.196 L193.715,416.634 L215.117,416.634 Z M197.609,405.434 L213.462,414.634 L191.731,414.634 L197.609,405.434 Z M190.021,413.595 C186.839,407.102 183.972,401.155 181.638,396.166 L195.877,404.429 L190.021,413.595 Z M220.381,446.555 L202.447,437.49 L209.472,427.815 L227.751,438.12 L220.381,446.555 Z M232.466,467.107 L212.965,458.081 L220.865,449.04 L240.376,458.902 L232.466,467.107 Z M245.257,488.594 L223.731,479.052 L232.919,469.52 L254.847,479.669 L245.257,488.594 Z M266.879,500.366 L235.743,500.183 L245.655,490.957 L266.879,500.366 Z M268.81,499.034 L247.247,489.476 L256.448,480.913 C260.458,486.901 264.575,492.94 268.81,499.034 L268.81,499.034 Z M253.821,476.99 L234.387,467.996 L242.493,459.587 C246.163,465.334 249.93,471.132 253.821,476.99 L253.821,476.99 Z M240.755,456.853 L222.223,447.486 L229.66,438.975 C233.228,444.866 236.937,450.831 240.755,456.853 L240.755,456.853 Z M227.779,435.84 L210.655,426.185 L217.005,417.438 C220.449,423.491 224.05,429.632 227.779,435.84 L227.779,435.84 Z M214.45,412.895 L198.687,403.746 L204.518,394.62 C207.672,400.623 210.987,406.717 214.45,412.895 L214.45,412.895 Z M184.72,382.932 C184.73,382.965 184.725,382.999 184.739,383.032 L188.29,391.838 L175.327,391.838 L172.988,382.932 L184.72,382.932 Z M157.06,382.932 L158.203,391.838 L145.123,391.838 L145.123,382.932 L157.06,382.932 Z M130.357,391.838 L143.123,391.838 L143.123,382.932 L130.357,382.932 L130.357,391.838 Z M88.759,382.932 L100.493,382.932 L98.154,391.838 L85.19,391.838 L88.741,383.032 C88.754,382.999 88.75,382.965 88.759,382.932 L88.759,382.932 Z M69.076,394.62 L74.907,403.746 L59.144,412.895 C62.607,406.717 65.921,400.623 69.076,394.62 L69.076,394.62 Z M43.934,438.974 L51.372,447.486 L32.839,456.853 C36.658,450.83 40.366,444.865 43.934,438.974 L43.934,438.974 Z M31.101,459.587 L39.207,467.996 L19.773,476.99 C23.664,471.133 27.432,465.334 31.101,459.587 L31.101,459.587 Z M27.73,490.762 L37.85,500.18 L6.604,500.366 L27.73,490.762 Z M4.823,498.98 C9.044,492.904 13.149,486.883 17.147,480.912 L26.144,489.286 L4.823,498.98 Z M51.175,477.531 L42.596,468.631 L59.89,460.626 C56.792,466.659 53.836,472.388 51.175,477.531 L51.175,477.531 Z M136.797,414.594 C136.006,414.594 135.217,414.613 134.43,414.634 L85.385,414.634 C89.338,406.624 92.808,399.438 95.38,393.838 L178.355,393.838 C180.925,399.438 184.377,406.624 188.302,414.634 L139.197,414.634 C138.398,414.612 137.599,414.594 136.797,414.594 L136.797,414.594 Z M213.538,460.549 L230.998,468.631 L222.273,477.683 C219.611,472.479 216.647,466.669 213.538,460.549 L213.538,460.549 Z M224.2,481.447 L243.665,490.075 L233.499,499.537 C232.172,496.969 228.756,490.343 224.2,481.447 L224.2,481.447 Z M233.217,502.167 L273.594,502.406 L272.487,500.822 C243.065,458.724 218.944,419.074 200.752,382.932 L206.859,382.932 L206.859,365.935 L192.512,365.935 C185.223,350.261 179.981,337.076 176.219,326.356 C176.205,326.196 176.153,326.045 176.065,325.908 C173.708,319.16 171.941,313.404 170.622,308.63 L178.415,308.63 L178.415,306.63 L170.079,306.63 C168.063,299.047 167.256,294.267 166.973,292.27 L171.558,292.27 L171.558,275.273 L163.249,275.273 C160.225,258.769 152.667,214.115 148.797,161.306 L148.818,161.284 L148.793,161.252 C147.733,146.774 146.952,131.684 146.616,116.394 L146.633,116.374 L146.615,116.34 C146.504,111.309 146.443,106.257 146.436,101.197 L152.472,101.197 L152.472,70.601 L146.329,70.601 L146.329,49.835 L137.797,49.835 L137.797,14 L135.797,14 L135.797,49.835 L127.265,49.835 L127.265,70.601 L121.122,70.601 L121.122,101.197 L127.158,101.197 C127.049,177.779 114.472,252.748 110.345,275.273 L102.036,275.273 L102.036,292.27 L106.621,292.27 C106.337,294.267 105.531,299.047 103.515,306.63 L95.179,306.63 L95.179,308.63 L102.973,308.63 C99.542,321.045 93.092,340.11 81.083,365.935 L66.736,365.935 L66.736,382.932 L72.841,382.932 C54.651,419.074 30.529,458.724 1.107,500.822 L0,502.406 L40.622,502.163 L40.9,501.631 C41.098,501.252 50.725,482.86 62.156,460.592 L62.158,460.593 C62.444,460.073 62.744,459.565 63.04,459.053 C63.042,459.05 63.043,459.045 63.045,459.042 C77.802,433.497 104.835,417.449 134.429,416.634 L139.2,416.634 C168.618,417.465 195.763,433.506 210.469,458.929 L210.471,458.928 C214.294,466.46 217.933,473.593 221.108,479.798 C221.114,479.808 221.119,479.818 221.124,479.828 C227.638,492.557 232.192,501.365 232.327,501.626 L232.605,502.163 L233.213,502.167 L233.215,502.167 L233.217,502.167 Z" id="tower-icon"></path>
            </g>
        </g>
    </g>
</svg>